<svg width="900" height="771" viewBox="0 0 900 771" fill="none" xmlns="http://www.w3.org/2000/svg">
<path d="M256.209 159.587L253.536 163.143C195.337 241.423 180.318 349.486 201.083 443.354C217.638 518.107 250.805 592.434 312.274 640.819C376.759 691.593 481.152 720.066 559.945 689.403C577.701 682.57 593.689 671.823 606.72 657.96C619.75 644.097 629.488 627.475 635.21 609.33C643.004 585.152 643.743 559.324 648.636 534.378C656.686 492.962 686.951 464.773 721.512 443.354C757.409 421.195 793.022 402.592 817.4 366.837C839.227 334.517 851.014 296.466 851.277 257.466C851.732 167.097 794.388 88.7879 714.458 49.9605C647.669 17.5618 569.929 12.527 496.74 24.929C405.29 40.4884 313.583 84.8909 256.209 159.587Z" fill="#EDE8F9"/>
<path d="M752.418 590.13C784.205 582.628 803.892 550.778 796.389 518.99C788.887 487.203 757.036 467.517 725.249 475.019C693.462 482.522 673.775 514.372 681.278 546.159C688.78 577.946 720.631 597.633 752.418 590.13Z" fill="#EDE8F9"/>
<path d="M162.828 526.869H570.814H730.248V395.88V94.3633H162.828V526.869Z" fill="white"/>
<path d="M162.828 153.899H570.814H730.248V135.893V94.3633H162.828V153.899Z" fill="#020202"/>
<path d="M730.245 529.118H162.825C162.229 529.118 161.658 528.881 161.236 528.46C160.815 528.038 160.578 527.467 160.578 526.871V94.5079C160.578 94.2142 160.636 93.9233 160.75 93.6523C160.863 93.3812 161.03 93.1353 161.239 92.9289C161.448 92.7225 161.695 92.5597 161.968 92.4499C162.24 92.3401 162.532 92.2855 162.825 92.2892H730.245C730.539 92.2855 730.831 92.3401 731.103 92.4499C731.376 92.5597 731.623 92.7225 731.832 92.9289C732.042 93.1353 732.207 93.3812 732.321 93.6523C732.434 93.9233 732.492 94.2142 732.492 94.5079V526.871C732.492 527.467 732.255 528.038 731.834 528.46C731.412 528.881 730.841 529.118 730.245 529.118V529.118ZM165.044 524.652H728.026V96.6129H165.044V524.652Z" fill="#491DC5"/>
<path d="M446.528 429.738C446.626 429.192 447.019 428.473 447.416 428.356C450.767 426.248 453.332 422.648 453.449 418.649C453.523 413.629 445.751 410.406 446.657 407.036C447.031 405.375 445.269 404.084 446.521 401.302C449.311 395.826 455.55 392.091 460.869 395.78C461.178 395.947 461.248 396.185 461.486 396.115L461.795 396.282C462.341 396.38 462.823 396.841 463.29 396.962L463.837 397.059C464.076 396.989 464.384 397.156 464.702 397.062C465.249 397.16 465.566 397.066 466.034 397.187C467.137 397.12 467.772 396.933 468.656 396.414C469.062 396.035 469.946 395.516 470.577 394.727C471.231 394.017 471.464 393.345 471.978 392.16C473.525 387.739 469.234 384.609 475.623 384.018L486.686 383.17C490.575 382.885 490.5 386.44 490.898 389.253C491.178 393.134 491.314 395.938 494.941 398.575C498.246 400.703 502.957 400.865 506.261 398.598C510.687 395.742 515.782 408.631 517.03 411.107C518.279 413.583 509.319 418.637 508.801 422.151C508.493 424.913 509.264 427.53 511.19 429.375C515.378 433.914 511.489 435.664 508.844 439.287C508.19 439.997 507.153 442.63 506.587 443.055C503.521 445.252 500.679 442.642 497.632 442.851C491.103 442.967 492.978 452.841 488.912 452.23C488.673 452.301 488.435 452.371 488.117 452.465C483.761 452.628 479.517 452.587 475.129 452.933C473.867 453.046 472.553 452.4 472.418 451.061C472.109 450.893 471.553 451.057 471.245 450.89C469.978 450.401 469.398 449.021 469.856 447.938C470.024 447.63 470.193 447.322 470.099 447.005C470.267 446.696 470.197 446.459 470.197 446.459C470.127 446.221 470.295 445.913 470.202 445.595C470.132 445.358 470.062 445.12 470.207 444.732C470.136 444.495 470.136 444.495 470.066 444.257L469.926 443.781C469.856 443.543 469.786 443.305 469.786 443.305C469.716 443.067 469.646 442.83 469.314 442.583C469.244 442.345 468.935 442.177 468.842 441.86C468.771 441.622 468.463 441.455 468.061 440.97C467.991 440.732 467.752 440.802 467.682 440.564C467.374 440.397 467.065 440.229 466.654 440.006C466.346 439.838 466.346 439.838 466.037 439.671C466.037 439.671 465.729 439.503 465.49 439.573C464.943 439.476 464.555 439.332 464.317 439.402C463.77 439.305 462.579 439.656 462.022 439.82C461.546 439.961 460.831 440.172 460.424 440.55C459.629 440.784 459.7 441.022 459.302 441.139C458.181 441.728 457.311 442.588 456.554 443.242C455.662 444.022 454.021 443.73 453.343 442.896C453.273 442.658 453.203 442.42 453.203 442.42C452.656 442.323 452.03 442.249 451.661 441.582C449.464 438.525 447.211 435.569 445.252 432.441C445.271 431.919 445.476 430.565 446.528 429.738ZM480.291 427.971C484.012 427.994 487.045 425.98 488.306 422.936C489.568 419.893 488.801 416.413 486.6 414.219L486.291 414.051C485.913 413.646 485.581 413.399 485.146 413.096C484.838 412.929 484.838 412.929 484.118 412.538C483.183 412.296 482.692 412.096 481.589 412.163C480.019 412.109 478.35 412.601 476.911 413.283C473.953 414.673 470.761 418.199 471.518 421.94C471.864 423.992 473.458 425.591 475.309 426.596C476.772 427.457 478.539 427.884 480.291 427.971Z" fill="#020202"/>
<path d="M517.215 49.2931C517.303 48.8037 517.655 48.1594 518.011 48.0544C521.014 46.165 523.314 42.9385 523.418 39.3551C523.485 34.856 516.519 31.9669 517.331 28.9471C517.666 27.4582 516.087 26.3019 517.209 23.8085C519.709 18.9009 525.301 15.5533 530.068 18.859C530.344 19.0092 530.407 19.2223 530.621 19.1593L530.897 19.3095C531.387 19.3967 531.819 19.8101 532.238 19.9183L532.728 20.0056C532.941 19.9426 533.218 20.0928 533.503 20.0088C533.993 20.096 534.278 20.012 534.697 20.1202C535.685 20.0605 536.255 19.8925 537.046 19.4275C537.411 19.0883 538.202 18.6232 538.768 17.9159C539.354 17.2797 539.563 16.6773 540.024 15.6147C541.41 11.6534 537.565 8.84833 543.291 8.31869L553.205 7.55814C556.69 7.30301 556.623 10.4892 556.98 13.01C557.231 16.4885 557.353 19.0013 560.603 21.3639C563.565 23.2711 567.787 23.4164 570.748 21.3849C574.715 18.8254 579.281 30.3767 580.4 32.5956C581.518 34.8144 573.489 39.3441 573.024 42.4932C572.748 44.9688 573.439 47.3136 575.165 48.9672C578.919 53.0352 575.434 54.6032 573.063 57.8507C572.477 58.487 571.547 60.8464 571.04 61.2275C568.293 63.196 565.746 60.8576 563.015 61.0449C557.163 61.1482 558.844 69.9978 555.2 69.4503C554.986 69.5133 554.772 69.5763 554.488 69.6603C550.584 69.8072 546.78 69.77 542.847 70.0801C541.716 70.1818 540.539 69.602 540.418 68.4022C540.141 68.252 539.643 68.399 539.366 68.2488C538.231 67.8111 537.712 66.5741 538.122 65.6036C538.273 65.3274 538.424 65.0513 538.34 64.767C538.491 64.4909 538.428 64.2778 538.428 64.2778C538.365 64.0646 538.516 63.7884 538.432 63.5042C538.369 63.2911 538.306 63.0779 538.436 62.7307C538.373 62.5175 538.373 62.5175 538.31 62.3044L538.185 61.878C538.122 61.6649 538.059 61.4517 538.059 61.4517C537.996 61.2385 537.933 61.0254 537.636 60.8041C537.573 60.5909 537.297 60.4408 537.213 60.1565C537.15 59.9434 536.873 59.7932 536.513 59.3588C536.45 59.1456 536.237 59.2086 536.174 58.9954C535.897 58.8452 535.621 58.6951 535.252 58.4948C534.976 58.3446 534.976 58.3446 534.699 58.1944C534.699 58.1944 534.423 58.0443 534.209 58.1072C533.719 58.02 533.372 57.8908 533.158 57.9538C532.668 57.8666 531.6 58.1815 531.101 58.3285C530.674 58.4544 530.033 58.6433 529.669 58.9825C528.957 59.1924 529.02 59.4056 528.664 59.5105C527.658 60.0386 526.879 60.8089 526.201 61.3951C525.401 62.0943 523.931 61.8327 523.323 61.085C523.26 60.8718 523.198 60.6587 523.198 60.6587C522.708 60.5715 522.146 60.5053 521.815 59.9078C519.846 57.1673 517.827 54.5188 516.072 51.7154C516.089 51.2471 516.273 50.0343 517.215 49.2931ZM547.474 47.7091C550.808 47.7301 553.526 45.9247 554.657 43.1971C555.788 40.4696 555.101 37.3512 553.128 35.3843L552.851 35.2341C552.512 34.8707 552.215 34.6495 551.825 34.3782C551.549 34.228 551.549 34.228 550.903 33.8776C550.066 33.6612 549.626 33.4819 548.637 33.5416C547.23 33.4932 545.735 33.9341 544.445 34.5461C541.793 35.7911 538.933 38.9515 539.612 42.304C539.922 44.1433 541.35 45.5757 543.009 46.4769C544.32 47.2488 545.903 47.6315 547.474 47.7091Z" stroke="black" stroke-width="1.69663" stroke-miterlimit="10"/>
<path d="M784.347 380.719C784.49 379.925 785.061 378.879 785.639 378.708C790.515 375.641 794.248 370.402 794.418 364.584C794.526 357.279 783.216 352.589 784.535 347.686C785.079 345.268 782.515 343.391 784.337 339.343C788.396 331.375 797.475 325.94 805.214 331.307C805.663 331.551 805.765 331.897 806.112 331.794L806.561 332.038C807.357 332.18 808.057 332.851 808.737 333.027L809.533 333.168C809.88 333.066 810.329 333.31 810.791 333.174C811.587 333.315 812.049 333.179 812.729 333.355C814.334 333.258 815.259 332.985 816.544 332.23C817.136 331.679 818.421 330.924 819.339 329.776C820.291 328.743 820.631 327.765 821.379 326.039C823.63 319.608 817.386 315.054 826.683 314.194L842.78 312.959C848.438 312.545 848.33 317.718 848.908 321.81C849.316 327.458 849.514 331.538 854.792 335.374C859.6 338.47 866.455 338.706 871.263 335.408C877.703 331.252 885.117 350.007 886.933 353.609C888.749 357.212 875.713 364.566 874.958 369.679C874.51 373.698 875.632 377.505 878.434 380.19C884.528 386.795 878.87 389.341 875.021 394.614C874.069 395.647 872.56 399.477 871.737 400.096C867.276 403.292 863.141 399.495 858.707 399.8C849.206 399.967 851.935 414.335 846.018 413.447C845.671 413.549 845.324 413.651 844.862 413.787C838.524 414.026 832.349 413.966 825.963 414.469C824.127 414.634 822.216 413.693 822.018 411.745C821.569 411.501 820.76 411.74 820.311 411.496C818.468 410.785 817.625 408.777 818.291 407.201C818.536 406.753 818.781 406.304 818.645 405.843C818.889 405.394 818.787 405.048 818.787 405.048C818.685 404.702 818.93 404.254 818.794 403.792C818.692 403.446 818.59 403.1 818.801 402.537C818.699 402.19 818.699 402.19 818.597 401.844L818.393 401.152C818.291 400.806 818.189 400.46 818.189 400.46C818.087 400.114 817.985 399.768 817.502 399.409C817.4 399.062 816.951 398.819 816.815 398.357C816.713 398.011 816.264 397.767 815.679 397.062C815.577 396.716 815.23 396.818 815.128 396.472C814.679 396.228 814.23 395.984 813.632 395.659C813.183 395.415 813.183 395.415 812.734 395.172C812.734 395.172 812.285 394.928 811.938 395.03C811.143 394.888 810.578 394.679 810.231 394.781C809.436 394.639 807.702 395.151 806.892 395.389C806.199 395.594 805.158 395.9 804.567 396.451C803.41 396.792 803.512 397.138 802.934 397.308C801.302 398.166 800.038 399.416 798.936 400.368C797.637 401.503 795.25 401.079 794.264 399.865C794.162 399.519 794.06 399.172 794.06 399.172C793.264 399.031 792.353 398.923 791.815 397.953C788.619 393.504 785.34 389.204 782.491 384.652C782.518 383.892 782.817 381.923 784.347 380.719ZM833.475 378.148C838.888 378.182 843.302 375.25 845.137 370.822C846.973 366.394 845.857 361.331 842.654 358.137L842.205 357.893C841.654 357.303 841.171 356.944 840.539 356.504C840.09 356.26 840.09 356.26 839.043 355.691C837.683 355.34 836.969 355.048 835.364 355.145C833.079 355.067 830.651 355.783 828.556 356.776C824.252 358.798 819.607 363.929 820.709 369.372C821.213 372.358 823.532 374.684 826.225 376.147C828.354 377.4 830.925 378.022 833.475 378.148Z" stroke="black" stroke-width="2.75463" stroke-miterlimit="10"/>
<path d="M730.243 156.144H162.824C162.509 156.18 162.191 156.148 161.89 156.052C161.588 155.956 161.31 155.798 161.074 155.587C160.838 155.376 160.649 155.118 160.52 154.829C160.391 154.54 160.324 154.228 160.324 153.911C160.324 153.595 160.391 153.282 160.52 152.993C160.649 152.704 160.838 152.446 161.074 152.235C161.31 152.025 161.588 151.866 161.89 151.77C162.191 151.674 162.509 151.643 162.824 151.678H730.243C730.557 151.643 730.876 151.674 731.178 151.77C731.479 151.866 731.757 152.025 731.993 152.235C732.229 152.446 732.417 152.704 732.547 152.993C732.676 153.282 732.743 153.595 732.743 153.911C732.743 154.228 732.676 154.54 732.547 154.829C732.417 155.118 732.229 155.376 731.993 155.587C731.757 155.798 731.479 155.956 731.178 156.052C730.876 156.148 730.557 156.18 730.243 156.144V156.144Z" fill="#491DC5"/>
<path d="M10.0808 613.227L32.6375 555.54C32.6375 555.54 31.5286 460.876 39.5216 416.928C51.7814 349.457 82.7293 342.459 82.7293 342.459C82.7293 342.459 109.127 271.347 161.949 231.296C215.653 190.734 269.413 186.809 279.511 219.463C290.263 254.138 234.341 266.511 209.566 316.745C192.925 350.424 193.351 364.732 193.351 364.732C193.351 364.732 251.749 340.525 257.922 408.395C257.922 408.395 289.922 373.322 327.327 358.986C361.461 345.93 400.687 359.213 396.847 394.087C393.234 427.055 327.214 456.068 312.65 499.333C295.355 550.705 292.739 582.079 241.538 634.276L223.532 689.63C218.907 703.869 211.508 717.052 201.761 728.417C192.015 739.781 180.114 749.103 166.745 755.844C153.377 762.585 138.806 766.612 123.873 767.692C108.94 768.772 93.9416 766.883 79.7425 762.136V762.136C65.1582 757.263 51.7174 749.474 40.2369 739.244C28.7565 729.014 19.4765 716.557 12.9608 702.629C6.44495 688.7 2.82922 673.592 2.33418 658.223C1.83914 642.854 4.47489 627.545 10.0808 613.227V613.227Z" fill="white"/>
<path d="M103.291 684.396C82.1421 677.351 63.2424 664.817 48.5243 648.075C33.8063 631.333 23.7978 610.983 19.521 589.105L10.0771 613.227C4.47176 627.547 1.83771 642.858 2.33462 658.229C2.83152 673.599 6.44884 688.708 12.9674 702.636C19.486 716.565 28.7698 729.022 40.2533 739.251C51.7369 749.479 65.1804 757.266 79.7672 762.136V762.136C93.9663 766.884 108.965 768.772 123.898 767.692C138.831 766.612 153.402 762.585 166.77 755.844C180.138 749.103 192.039 739.781 201.786 728.417C211.533 717.052 218.932 703.869 223.557 689.63L236.585 649.608C220.133 667.706 198.773 680.631 175.107 686.808C151.441 692.984 126.49 692.146 103.291 684.396V684.396Z" fill="#491DC5"/>
<path d="M425.097 205.051C459.241 239.196 459.241 294.554 425.097 328.699C390.953 362.843 335.594 362.843 301.449 328.699C267.305 294.554 267.305 239.196 301.449 205.051C335.594 170.907 390.953 170.907 425.097 205.051Z" fill="#491DC5" stroke="black" stroke-width="1.13072"/>
<path d="M462.015 265.28H367.587V169.962C419.793 170.266 462.02 212.681 462.015 264.964V264.965V264.967V264.969V264.971V264.972V264.974V264.976V264.977V264.979V264.981V264.983V264.984V264.986V264.988V264.989V264.991V264.993V264.994V264.996V264.998V265V265.001V265.003V265.005V265.006V265.008V265.01V265.012V265.013V265.015V265.017V265.018V265.02V265.022V265.024V265.025V265.027V265.029V265.03V265.032V265.034V265.036V265.037V265.039V265.041V265.042V265.044V265.046V265.048V265.049V265.051V265.053V265.054V265.056V265.058V265.06V265.061V265.063V265.065V265.066V265.068V265.07V265.072V265.073V265.075V265.077V265.078V265.08V265.082V265.084V265.085V265.087V265.089V265.09V265.092V265.094V265.096V265.097V265.099V265.101V265.102V265.104V265.106V265.108V265.109V265.111V265.113V265.114V265.116V265.118V265.12V265.121V265.123V265.125V265.126V265.128V265.13V265.132V265.133V265.135V265.137V265.138V265.14V265.142V265.144V265.145V265.147V265.149V265.15V265.152V265.154V265.156V265.157V265.159V265.161V265.162V265.164V265.166V265.167V265.169V265.171V265.173V265.174V265.176V265.178V265.179V265.181V265.183V265.185V265.186V265.188V265.19V265.191V265.193V265.195V265.197V265.198V265.2V265.202V265.203V265.205V265.207V265.209V265.21V265.212V265.214V265.215V265.217V265.219V265.221V265.222V265.224V265.226V265.228V265.229V265.231V265.233V265.234V265.236V265.238V265.24V265.241V265.243V265.245V265.246V265.248V265.25V265.252V265.253V265.255V265.257V265.258V265.26V265.262V265.264V265.265V265.267V265.269V265.27V265.272V265.274V265.276V265.277V265.279V265.28Z" fill="white" stroke="black" stroke-width="1.13072"/>
<path d="M115.807 770.274C103.314 770.26 90.905 768.233 79.0566 764.272C64.1796 759.309 50.4676 751.372 38.7538 740.944C27.04 730.516 17.5688 717.815 10.9172 703.612C4.26557 689.41 0.572583 674.003 0.0614528 658.328C-0.449678 642.654 2.232 627.039 7.94423 612.433L30.3592 555.116C30.3592 548.062 29.591 458.66 37.2711 416.533C48.45 355.063 74.9318 342.576 80.9622 340.642C84.5178 331.596 111.313 266.685 160.608 229.507C196.591 202.314 235.703 189.855 260.165 197.734C265.223 199.164 269.839 201.844 273.587 205.528C277.335 209.211 280.096 213.78 281.613 218.812C287.985 239.321 272.34 252.747 254.249 268.278C239.344 281.106 222.419 295.613 211.582 317.743C199.806 341.58 196.705 355.604 195.909 361.463C203.532 359.017 222.476 354.58 238.149 364.052C249.84 371.106 257.065 384.333 259.625 403.391C268.813 394.09 295.636 368.774 326.528 356.912C348.146 348.635 371.442 350.512 385.921 361.662C390.855 365.413 394.683 370.428 397.002 376.176C399.32 381.925 400.042 388.193 399.091 394.317C397.185 411.583 379.435 427.484 360.604 444.323C341.774 461.163 321.92 478.884 314.809 500.047C311.964 508.58 309.46 516.574 307.071 524.282C295.409 562 286.193 591.839 243.554 635.473L225.605 690.315C218.041 713.499 203.357 733.706 183.644 748.062C163.932 762.417 140.193 770.19 115.807 770.274V770.274ZM10.0776 613.229L12.154 614.054C6.73031 627.909 4.14285 642.712 4.54417 657.586C4.94549 672.459 8.32721 687.1 14.4902 700.643C20.6531 714.185 29.4714 726.353 40.4226 736.425C51.3737 746.498 64.2352 754.27 78.2448 759.281C92.2543 764.292 107.127 766.441 121.982 765.6C136.837 764.758 151.372 760.944 164.726 754.383C178.08 747.822 189.982 738.648 199.726 727.403C209.47 716.159 216.858 703.073 221.452 688.921L239.429 633.596C239.537 633.263 239.722 632.961 239.97 632.714C282.154 589.649 290.8 561.602 302.776 522.974C305.165 515.237 307.64 507.244 310.542 498.625C318.023 476.352 338.133 458.375 357.589 440.967C375.765 424.753 392.918 409.421 394.568 393.834C395.427 388.481 394.823 382.996 392.82 377.959C390.817 372.921 387.49 368.519 383.19 365.218C370.133 355.12 348.004 353.47 328.149 361.093C291.683 375.06 259.881 409.45 259.597 409.905C259.304 410.224 258.925 410.45 258.506 410.557C258.086 410.663 257.645 410.644 257.236 410.502C256.829 410.363 256.469 410.109 256.202 409.771C255.935 409.433 255.771 409.025 255.728 408.596C253.908 388.457 247.195 374.747 235.817 367.892C218.039 357.14 194.458 366.697 194.202 366.783C193.872 366.924 193.514 366.982 193.156 366.952C192.799 366.923 192.455 366.806 192.154 366.612C191.848 366.414 191.596 366.145 191.418 365.828C191.239 365.511 191.14 365.155 191.129 364.791C191.129 364.194 190.873 349.545 207.542 315.752C218.92 292.826 235.988 278.006 251.376 264.893C269.666 249.191 282.864 237.842 277.375 220.12C276.074 215.775 273.689 211.832 270.445 208.662C267.2 205.492 263.203 203.2 258.828 202.001C235.674 194.52 198.184 206.723 163.311 233.091C111.626 272.146 85.0585 342.519 84.8025 343.23C84.6812 343.581 84.4707 343.894 84.1914 344.138C83.912 344.383 83.5732 344.55 83.2094 344.624C82.925 344.624 53.5134 352.475 41.7087 417.329C33.8579 460.565 34.8815 554.576 34.8815 555.515C34.9246 555.788 34.9246 556.066 34.8815 556.339L12.2679 614.054L10.0776 613.229Z" fill="#491DC5"/>
<path d="M72.0002 393.629H71.5169C70.9426 393.5 70.4416 393.15 70.1224 392.655C69.8032 392.161 69.6912 391.56 69.8099 390.984L80.4198 342.03C80.5443 341.453 80.8932 340.949 81.3893 340.629C81.8854 340.309 82.4879 340.199 83.065 340.323C83.6421 340.448 84.1463 340.797 84.4664 341.293C84.7865 341.789 84.8964 342.392 84.772 342.969L74.3044 391.951C74.1737 392.454 73.8724 392.896 73.4523 393.202C73.0322 393.508 72.5191 393.659 72.0002 393.629V393.629Z" fill="#491DC5"/>
<path d="M212.374 426.403C212.068 426.408 211.765 426.34 211.492 426.204C210.967 425.972 210.553 425.547 210.336 425.016C210.119 424.486 210.114 423.892 210.325 423.359L222.528 395.114C222.762 394.57 223.202 394.142 223.752 393.924C224.301 393.705 224.915 393.714 225.458 393.947C226.001 394.181 226.429 394.621 226.648 395.171C226.867 395.72 226.858 396.334 226.625 396.877L214.422 425.123C214.237 425.509 213.947 425.835 213.584 426.062C213.221 426.288 212.801 426.407 212.374 426.403V426.403Z" fill="#491DC5"/>
<path d="M223.211 429.33C219.046 429.338 214.957 428.218 211.378 426.087C190.727 413.856 191.239 366.694 191.267 364.675C191.275 364.091 191.512 363.534 191.927 363.124C192.342 362.714 192.903 362.484 193.486 362.484C193.78 362.488 194.07 362.55 194.34 362.667C194.609 362.783 194.853 362.953 195.057 363.164C195.261 363.376 195.421 363.626 195.527 363.9C195.634 364.174 195.684 364.466 195.677 364.76C195.677 365.215 195.165 411.324 213.597 422.247C231.574 432.886 256.122 407.114 256.264 406.858C256.687 406.501 257.226 406.313 257.778 406.328C258.331 406.344 258.859 406.563 259.26 406.943C259.662 407.323 259.909 407.839 259.955 408.39C260 408.941 259.841 409.49 259.507 409.931C258.653 410.869 241.103 429.33 223.211 429.33Z" fill="#491DC5"/>
<path d="M204.757 134.215C211.277 134.215 216.563 128.93 216.563 122.41C216.563 115.891 211.277 110.605 204.757 110.605C198.238 110.605 192.953 115.891 192.953 122.41C192.953 128.93 198.238 134.215 204.757 134.215Z" fill="#491DC5"/>
<path d="M248.355 134.215C254.875 134.215 260.16 128.93 260.16 122.41C260.16 115.891 254.875 110.605 248.355 110.605C241.836 110.605 236.551 115.891 236.551 122.41C236.551 128.93 241.836 134.215 248.355 134.215Z" fill="white"/>
<rect x="637.213" y="244.182" width="24.1482" height="82.5063" transform="rotate(-9.10137 637.213 244.182)" fill="#491DC5"/>
<rect x="594.238" y="211.326" width="24.1482" height="121.747" transform="rotate(-9.10137 594.238 211.326)" fill="#7F61D6"/>
<path d="M541.59 219.762L560.848 339.976L690.004 319.285" stroke="#020202" stroke-width="4.13485" stroke-linecap="round"/>
</svg>
