<svg width="102" height="50" viewBox="0 0 102 50" fill="none" xmlns="http://www.w3.org/2000/svg">
<path d="M9.64355 17H7.42188L6.60645 14.7148H3.03711L2.22168 17H0L3.7207 7.43457H5.92285L9.64355 17ZM3.61328 13.1426H6.01074L4.82422 9.78809L3.61328 13.1426ZM14.9268 12.7178C14.8682 12.2588 14.738 11.9154 14.5361 11.6875C14.3343 11.4564 14.0381 11.3408 13.6475 11.3408C13.3219 11.3408 13.0518 11.4043 12.8369 11.5312C12.6221 11.6549 12.4495 11.821 12.3193 12.0293C12.1924 12.2344 12.1012 12.4688 12.0459 12.7324C11.9938 12.9961 11.9678 13.2646 11.9678 13.5381C11.9678 13.7822 11.9954 14.0264 12.0508 14.2705C12.1061 14.5146 12.194 14.7344 12.3145 14.9297C12.4382 15.1217 12.5977 15.278 12.793 15.3984C12.9915 15.5189 13.2308 15.5791 13.5107 15.5791C13.9339 15.5791 14.279 15.4359 14.5459 15.1494C14.8161 14.863 14.9772 14.4528 15.0293 13.9189L16.8994 13.9141C16.8604 14.4154 16.7546 14.8695 16.582 15.2764C16.4095 15.68 16.1768 16.0251 15.8838 16.3115C15.5941 16.5947 15.249 16.8145 14.8486 16.9707C14.4515 17.1237 14.0055 17.2002 13.5107 17.2002C12.9248 17.2002 12.4105 17.109 11.9678 16.9268C11.5251 16.7445 11.1556 16.4906 10.8594 16.165C10.5664 15.8395 10.3451 15.4538 10.1953 15.0078C10.0456 14.5586 9.9707 14.0687 9.9707 13.5381C9.9707 13.0075 10.0423 12.5111 10.1855 12.0488C10.3288 11.5833 10.5485 11.1781 10.8447 10.833C11.141 10.488 11.512 10.2161 11.958 10.0176C12.4072 9.81901 12.9378 9.71973 13.5498 9.71973C13.9795 9.71973 14.3864 9.77832 14.7705 9.89551C15.1579 10.0094 15.4997 10.1885 15.7959 10.4326C16.0954 10.6735 16.3411 10.9827 16.5332 11.3604C16.7253 11.738 16.8441 12.1904 16.8896 12.7178H14.9268ZM18.2861 11.3018H17.3877V9.90039H18.2861V8.05957H20.2295V9.90039H21.3477V11.3018H20.2295L20.2344 14.8418C20.2344 15.0208 20.2507 15.1462 20.2832 15.2178C20.3158 15.2861 20.3727 15.3203 20.4541 15.3203C20.5029 15.3203 20.5518 15.3203 20.6006 15.3203C20.6527 15.3203 20.7113 15.3187 20.7764 15.3154C20.8415 15.3089 20.9196 15.3024 21.0107 15.2959C21.1019 15.2894 21.2126 15.278 21.3428 15.2617V16.9414C21.1702 16.9609 20.9961 16.9788 20.8203 16.9951C20.6445 17.0114 20.4915 17.0195 20.3613 17.0195C20.0456 17.0195 19.7607 16.9821 19.5068 16.9072C19.2529 16.8291 19.0365 16.7087 18.8574 16.5459C18.6784 16.3799 18.54 16.1699 18.4424 15.916C18.348 15.6621 18.3008 15.3577 18.3008 15.0029L18.2861 11.3018ZM22.4561 9.04102V7.23926H24.4189V9.04102H22.4561ZM24.4189 9.90039V17H22.4561V9.90039H24.4189ZM25.5273 13.46C25.5273 12.8936 25.6185 12.3776 25.8008 11.9121C25.9831 11.4466 26.2386 11.0479 26.5674 10.7158C26.8962 10.3838 27.2868 10.1266 27.7393 9.94434C28.1917 9.76204 28.6898 9.6709 29.2334 9.6709C29.7803 9.6709 30.2816 9.76204 30.7373 9.94434C31.1963 10.1266 31.5902 10.3838 31.9189 10.7158C32.251 11.0479 32.5081 11.4466 32.6904 11.9121C32.8727 12.3776 32.9639 12.8936 32.9639 13.46C32.9639 14.0264 32.8727 14.5423 32.6904 15.0078C32.5081 15.4733 32.251 15.8721 31.9189 16.2041C31.5902 16.5361 31.1963 16.7933 30.7373 16.9756C30.2816 17.1579 29.7803 17.249 29.2334 17.249C28.6898 17.249 28.1917 17.1579 27.7393 16.9756C27.2868 16.7933 26.8962 16.5361 26.5674 16.2041C26.2386 15.8721 25.9831 15.4733 25.8008 15.0078C25.6185 14.5423 25.5273 14.0264 25.5273 13.46ZM27.4854 13.46C27.4854 13.7432 27.5146 14.0215 27.5732 14.2949C27.6318 14.5684 27.7295 14.8109 27.8662 15.0225C28.0029 15.234 28.182 15.4049 28.4033 15.5352C28.6279 15.6654 28.9046 15.7305 29.2334 15.7305C29.5687 15.7305 29.8503 15.6654 30.0781 15.5352C30.3092 15.4049 30.4948 15.234 30.6348 15.0225C30.7747 14.8109 30.874 14.5684 30.9326 14.2949C30.9945 14.0215 31.0254 13.7432 31.0254 13.46C31.0254 13.1768 30.9928 12.8984 30.9277 12.625C30.8626 12.3516 30.7585 12.109 30.6152 11.8975C30.472 11.6859 30.2865 11.515 30.0586 11.3848C29.8307 11.2546 29.5557 11.1895 29.2334 11.1895C28.9144 11.1895 28.6442 11.2546 28.4229 11.3848C28.2015 11.515 28.0208 11.6859 27.8809 11.8975C27.7441 12.109 27.6432 12.3516 27.5781 12.625C27.5163 12.8984 27.4854 13.1768 27.4854 13.46ZM33.9648 9.90039H35.8252V10.877C36.0107 10.6198 36.2077 10.4147 36.416 10.2617C36.6243 10.1055 36.8311 9.98665 37.0361 9.90527C37.2445 9.82064 37.4463 9.7653 37.6416 9.73926C37.8369 9.71322 38.0143 9.7002 38.1738 9.7002C38.6263 9.7002 39.0088 9.77018 39.3213 9.91016C39.6338 10.0501 39.8861 10.2438 40.0781 10.4912C40.2702 10.7354 40.4085 11.0251 40.4932 11.3604C40.5811 11.6956 40.625 12.0602 40.625 12.4541V17H38.667V13.001C38.667 11.8258 38.291 11.2383 37.5391 11.2383C37.3112 11.2383 37.0996 11.2806 36.9043 11.3652C36.709 11.4499 36.5381 11.585 36.3916 11.7705C36.2484 11.9528 36.1344 12.1904 36.0498 12.4834C35.9684 12.7764 35.9277 13.1312 35.9277 13.5479V17H33.9648V9.90039ZM46.2891 13.5771C46.1654 13.5706 46.0124 13.5723 45.8301 13.582C45.651 13.5918 45.4622 13.613 45.2637 13.6455C45.0651 13.6781 44.8649 13.7253 44.6631 13.7871C44.4645 13.8457 44.2855 13.9238 44.126 14.0215C43.9665 14.1191 43.8363 14.238 43.7354 14.3779C43.6377 14.5146 43.5889 14.6758 43.5889 14.8613C43.5889 15.0371 43.623 15.1803 43.6914 15.291C43.7598 15.3984 43.8428 15.4831 43.9404 15.5449C44.0413 15.6035 44.1455 15.6442 44.2529 15.667C44.3636 15.6898 44.4613 15.7012 44.5459 15.7012C44.7803 15.7077 45.0033 15.6719 45.2148 15.5938C45.4264 15.5156 45.612 15.4131 45.7715 15.2861C45.931 15.1592 46.0563 15.0176 46.1475 14.8613C46.2419 14.7018 46.2891 14.5439 46.2891 14.3877V13.5771ZM46.4404 16.1553C46.2646 16.3636 46.0807 16.5361 45.8887 16.6729C45.6966 16.8063 45.498 16.9121 45.293 16.9902C45.0879 17.0684 44.8796 17.1221 44.668 17.1514C44.4564 17.1839 44.2432 17.2002 44.0283 17.2002C43.6995 17.2002 43.3903 17.1562 43.1006 17.0684C42.8141 16.9837 42.5651 16.8535 42.3535 16.6777C42.1419 16.4987 41.9743 16.2741 41.8506 16.0039C41.7301 15.7337 41.6699 15.4131 41.6699 15.042C41.6699 14.7458 41.7155 14.4805 41.8066 14.2461C41.8978 14.0117 42.0215 13.8066 42.1777 13.6309C42.334 13.4518 42.5163 13.2988 42.7246 13.1719C42.9362 13.0417 43.1624 12.9326 43.4033 12.8447C43.6442 12.7568 43.8932 12.6868 44.1504 12.6348C44.4108 12.5827 44.6663 12.5436 44.917 12.5176C45.1709 12.4915 45.415 12.4769 45.6494 12.4736C45.8838 12.4704 46.097 12.472 46.2891 12.4785V12.249C46.2891 12.0439 46.2549 11.8665 46.1865 11.7168C46.1214 11.5671 46.0303 11.4434 45.9131 11.3457C45.7992 11.248 45.6657 11.1764 45.5127 11.1309C45.363 11.082 45.2035 11.0576 45.0342 11.0576C44.9365 11.0576 44.821 11.069 44.6875 11.0918C44.554 11.1146 44.4238 11.1618 44.2969 11.2334C44.1732 11.3018 44.0609 11.3994 43.96 11.5264C43.859 11.6533 43.7907 11.821 43.7549 12.0293H41.8359C41.8913 11.7266 41.9775 11.4613 42.0947 11.2334C42.2152 11.0023 42.3584 10.8021 42.5244 10.6328C42.6937 10.4635 42.8841 10.3219 43.0957 10.208C43.3073 10.0941 43.5319 10.0029 43.7695 9.93457C44.0072 9.86296 44.2529 9.8125 44.5068 9.7832C44.764 9.75391 45.0228 9.73926 45.2832 9.73926C45.6803 9.73926 46.0563 9.7832 46.4111 9.87109C46.766 9.95573 47.0752 10.0941 47.3389 10.2861C47.6058 10.4782 47.8174 10.7288 47.9736 11.0381C48.1299 11.3441 48.208 11.7184 48.208 12.1611V15.2617C48.208 15.5026 48.221 15.7679 48.2471 16.0576C48.2764 16.3441 48.348 16.6582 48.4619 17L46.6064 16.9951C46.5706 16.891 46.5381 16.7607 46.5088 16.6045C46.4827 16.445 46.46 16.2952 46.4404 16.1553ZM51.4844 17H49.624V7.23926H51.5869V10.623C51.7269 10.4375 51.8848 10.2845 52.0605 10.1641C52.2363 10.0404 52.4186 9.94434 52.6074 9.87598C52.7962 9.80436 52.985 9.75391 53.1738 9.72461C53.3659 9.69531 53.5498 9.68066 53.7256 9.68066C54.0739 9.68066 54.3945 9.72786 54.6875 9.82227C54.9805 9.91667 55.2441 10.0469 55.4785 10.2129C55.7129 10.3789 55.918 10.5775 56.0938 10.8086C56.2695 11.0397 56.416 11.2936 56.5332 11.5703C56.6504 11.8438 56.7383 12.1335 56.7969 12.4395C56.8555 12.7454 56.8848 13.0596 56.8848 13.3818C56.8848 13.7106 56.8555 14.0345 56.7969 14.3535C56.7383 14.6693 56.6504 14.9688 56.5332 15.252C56.416 15.5352 56.2695 15.7956 56.0938 16.0332C55.918 16.2708 55.7113 16.4759 55.4736 16.6484C55.236 16.821 54.9674 16.9561 54.668 17.0537C54.3717 17.1514 54.0446 17.2002 53.6865 17.2002C53.4619 17.2002 53.2487 17.1823 53.0469 17.1465C52.8483 17.1139 52.6579 17.057 52.4756 16.9756C52.2933 16.8942 52.1191 16.7852 51.9531 16.6484C51.7904 16.5085 51.6341 16.3343 51.4844 16.126V17ZM51.5234 13.4209C51.5234 13.7139 51.5495 13.9987 51.6016 14.2754C51.6569 14.5521 51.748 14.7979 51.875 15.0127C52.0052 15.2275 52.1777 15.4001 52.3926 15.5303C52.6107 15.6572 52.8825 15.7207 53.208 15.7207C53.5075 15.7207 53.7646 15.654 53.9795 15.5205C54.1976 15.3838 54.3766 15.208 54.5166 14.9932C54.6566 14.7751 54.7591 14.5309 54.8242 14.2607C54.8926 13.9873 54.9268 13.7139 54.9268 13.4404C54.9268 13.1442 54.8975 12.8594 54.8389 12.5859C54.7803 12.3125 54.6826 12.07 54.5459 11.8584C54.4124 11.6468 54.235 11.4775 54.0137 11.3506C53.7956 11.2236 53.527 11.1602 53.208 11.1602C52.8857 11.1602 52.6172 11.2236 52.4023 11.3506C52.1875 11.4775 52.015 11.6468 51.8848 11.8584C51.7546 12.0667 51.6618 12.3076 51.6064 12.5811C51.5511 12.8512 51.5234 13.1312 51.5234 13.4209ZM59.9658 7.23926V17H58.0273V7.23926H59.9658ZM66.333 12.8105C66.3037 12.5827 66.25 12.3711 66.1719 12.1758C66.0938 11.9805 65.988 11.8112 65.8545 11.668C65.721 11.5215 65.5583 11.4076 65.3662 11.3262C65.1774 11.2415 64.9561 11.1992 64.7021 11.1992C64.4938 11.1992 64.3099 11.2269 64.1504 11.2822C63.9909 11.3343 63.8509 11.4043 63.7305 11.4922C63.6133 11.5801 63.5124 11.681 63.4277 11.7949C63.3464 11.9089 63.2796 12.026 63.2275 12.1465C63.1755 12.2637 63.1364 12.3809 63.1104 12.498C63.0843 12.612 63.068 12.7161 63.0615 12.8105H66.333ZM68.0713 14.7637C67.9606 15.1901 67.8044 15.5579 67.6025 15.8672C67.4007 16.1732 67.1549 16.4255 66.8652 16.624C66.5788 16.8226 66.25 16.9691 65.8789 17.0635C65.5111 17.1611 65.1042 17.21 64.6582 17.21C64.1341 17.21 63.6507 17.1204 63.208 16.9414C62.7686 16.7591 62.3893 16.5068 62.0703 16.1846C61.7513 15.859 61.5023 15.4733 61.3232 15.0273C61.1442 14.5814 61.0547 14.0931 61.0547 13.5625C61.0547 13.0286 61.1344 12.529 61.2939 12.0635C61.4567 11.5947 61.6943 11.1878 62.0068 10.8428C62.3193 10.4945 62.7051 10.221 63.1641 10.0225C63.6263 9.82064 64.1585 9.71973 64.7607 9.71973C65.1774 9.71973 65.555 9.77669 65.8936 9.89062C66.2321 10.0013 66.5316 10.1559 66.792 10.3545C67.0557 10.5531 67.2803 10.7891 67.4658 11.0625C67.6546 11.3327 67.806 11.6289 67.9199 11.9512C68.0371 12.2702 68.1169 12.6087 68.1592 12.9668C68.2048 13.3216 68.2161 13.6829 68.1934 14.0508H63.0615C63.0745 14.2493 63.1169 14.4495 63.1885 14.6514C63.2633 14.8532 63.3675 15.0355 63.501 15.1982C63.6344 15.3577 63.7972 15.4896 63.9893 15.5938C64.1846 15.6947 64.4076 15.7451 64.6582 15.7451C65.0651 15.7451 65.3988 15.6686 65.6592 15.5156C65.9229 15.3626 66.1019 15.112 66.1963 14.7637H68.0713Z" fill="#020202"/>
<path d="M37.3125 22.7266V38H33.3438V22.7266H37.3125ZM39.4531 26.6406H43.0703V27.6641C43.3047 27.4089 43.5469 27.1953 43.7969 27.0234C44.0469 26.8516 44.3047 26.7135 44.5703 26.6094C44.8411 26.5052 45.1172 26.4323 45.3984 26.3906C45.6849 26.3438 45.9766 26.3203 46.2734 26.3203C47.1068 26.3203 47.8073 26.4349 48.375 26.6641C48.9479 26.888 49.4089 27.2057 49.7578 27.6172C50.112 28.0286 50.3646 28.5234 50.5156 29.1016C50.6719 29.6797 50.75 30.3203 50.75 31.0234V38H46.9766V31.6016C46.9766 31.1276 46.9505 30.7266 46.8984 30.3984C46.8464 30.0651 46.7552 29.7943 46.625 29.5859C46.4948 29.3724 46.3229 29.2188 46.1094 29.125C45.8958 29.026 45.6302 28.9766 45.3125 28.9766C44.9583 28.9766 44.651 29.0365 44.3906 29.1562C44.1302 29.2708 43.9141 29.4531 43.7422 29.7031C43.5703 29.9479 43.4427 30.2656 43.3594 30.6562C43.276 31.0417 43.2344 31.5052 43.2344 32.0469V38H39.4531V26.6406ZM55.3672 34.3203C55.3776 34.6328 55.4401 34.8958 55.5547 35.1094C55.6693 35.3229 55.8203 35.4948 56.0078 35.625C56.1953 35.75 56.4115 35.8411 56.6562 35.8984C56.901 35.9557 57.1562 35.9844 57.4219 35.9844C57.6302 35.9844 57.8333 35.9635 58.0312 35.9219C58.2344 35.8802 58.4167 35.8125 58.5781 35.7188C58.7396 35.6198 58.8698 35.4922 58.9688 35.3359C59.0677 35.1797 59.1172 34.9896 59.1172 34.7656C59.1172 34.5677 59.0651 34.3984 58.9609 34.2578C58.862 34.112 58.6953 33.9818 58.4609 33.8672C58.2318 33.7474 57.9271 33.638 57.5469 33.5391C57.1719 33.4349 56.7083 33.3229 56.1562 33.2031C55.8594 33.1406 55.5547 33.0651 55.2422 32.9766C54.9349 32.8828 54.6354 32.7734 54.3438 32.6484C54.0573 32.5234 53.7865 32.3802 53.5312 32.2188C53.276 32.0521 53.0521 31.862 52.8594 31.6484C52.6719 31.4349 52.5234 31.1953 52.4141 30.9297C52.3047 30.6641 52.25 30.3646 52.25 30.0312C52.25 29.5417 52.3203 29.112 52.4609 28.7422C52.6016 28.3724 52.7943 28.0547 53.0391 27.7891C53.2891 27.5182 53.5807 27.2943 53.9141 27.1172C54.2474 26.9401 54.6068 26.7995 54.9922 26.6953C55.3776 26.5911 55.7812 26.5182 56.2031 26.4766C56.625 26.4349 57.0469 26.4141 57.4688 26.4141C58.1406 26.4141 58.776 26.474 59.375 26.5938C59.9792 26.7135 60.5104 26.9141 60.9688 27.1953C61.4323 27.4714 61.8073 27.8385 62.0938 28.2969C62.3854 28.7552 62.5547 29.3229 62.6016 30H59.0469C59.0208 29.7656 58.9635 29.5677 58.875 29.4062C58.7917 29.2448 58.6797 29.1146 58.5391 29.0156C58.3984 28.9115 58.2318 28.8359 58.0391 28.7891C57.8516 28.7422 57.6406 28.7188 57.4062 28.7188C57.2292 28.7188 57.0573 28.7344 56.8906 28.7656C56.724 28.7917 56.5729 28.8385 56.4375 28.9062C56.3073 28.9688 56.2005 29.0521 56.1172 29.1562C56.0391 29.2552 56 29.3776 56 29.5234C56 29.737 56.0807 29.9193 56.2422 30.0703C56.4089 30.2161 56.6354 30.3464 56.9219 30.4609C57.2083 30.5703 57.5443 30.6719 57.9297 30.7656C58.3151 30.8542 58.7266 30.9505 59.1641 31.0547C59.6224 31.1589 60.0703 31.2917 60.5078 31.4531C60.9505 31.6146 61.3464 31.8229 61.6953 32.0781C62.0443 32.3333 62.3255 32.6458 62.5391 33.0156C62.7526 33.3854 62.8594 33.8307 62.8594 34.3516C62.8594 34.8776 62.7891 35.3411 62.6484 35.7422C62.5078 36.1432 62.3099 36.4896 62.0547 36.7812C61.8047 37.0729 61.5078 37.3151 61.1641 37.5078C60.8203 37.7005 60.4453 37.8568 60.0391 37.9766C59.638 38.0911 59.2109 38.1719 58.7578 38.2188C58.3047 38.2656 57.8464 38.2891 57.3828 38.2891C56.6849 38.2891 56.0078 38.2214 55.3516 38.0859C54.6953 37.9505 54.1068 37.7292 53.5859 37.4219C53.0703 37.1094 52.6484 36.7005 52.3203 36.1953C51.9974 35.6901 51.8203 35.0651 51.7891 34.3203H55.3672ZM64.0859 25.2656V22.3828H67.8594V25.2656H64.0859ZM67.8594 26.6406V38H64.0859V26.6406H67.8594ZM75.0547 35.7578C75.487 35.7578 75.8516 35.6641 76.1484 35.4766C76.4453 35.2891 76.6849 35.0417 76.8672 34.7344C77.0547 34.4271 77.1875 34.0755 77.2656 33.6797C77.349 33.2839 77.3906 32.8776 77.3906 32.4609C77.3906 31.9766 77.3594 31.513 77.2969 31.0703C77.2396 30.6224 77.125 30.2292 76.9531 29.8906C76.7865 29.5521 76.5495 29.2839 76.2422 29.0859C75.9401 28.8828 75.5443 28.7812 75.0547 28.7812C74.6224 28.7812 74.263 28.875 73.9766 29.0625C73.6901 29.2448 73.4609 29.4922 73.2891 29.8047C73.1172 30.112 72.9948 30.4688 72.9219 30.875C72.849 31.2812 72.8125 31.7031 72.8125 32.1406C72.8125 32.5729 72.8411 33.0052 72.8984 33.4375C72.9557 33.8698 73.0651 34.2578 73.2266 34.6016C73.388 34.9453 73.6146 35.224 73.9062 35.4375C74.1979 35.651 74.5807 35.7578 75.0547 35.7578ZM81.0391 37.8047C81.0391 38.1797 81.0078 38.5677 80.9453 38.9688C80.888 39.375 80.7786 39.7708 80.6172 40.1562C80.4557 40.5469 80.2318 40.9167 79.9453 41.2656C79.6641 41.6198 79.2969 41.9271 78.8438 42.1875C78.3906 42.4531 77.8411 42.6641 77.1953 42.8203C76.5547 42.9766 75.7969 43.0547 74.9219 43.0547C74.5521 43.0547 74.1615 43.0234 73.75 42.9609C73.3438 42.9036 72.9401 42.8099 72.5391 42.6797C72.1432 42.5547 71.763 42.3932 71.3984 42.1953C71.0391 41.9974 70.7161 41.7552 70.4297 41.4688C70.1484 41.1875 69.9167 40.862 69.7344 40.4922C69.5573 40.1276 69.4531 39.7135 69.4219 39.25H72.8438C72.9167 39.5521 73.0339 39.7943 73.1953 39.9766C73.362 40.1641 73.5547 40.3073 73.7734 40.4062C73.9922 40.5052 74.2266 40.5703 74.4766 40.6016C74.7266 40.638 74.9714 40.6562 75.2109 40.6562C75.9349 40.6562 76.4792 40.4141 76.8438 39.9297C77.2083 39.4453 77.3906 38.7708 77.3906 37.9062V37.0078C77.1667 37.263 76.9323 37.4688 76.6875 37.625C76.4479 37.7812 76.1979 37.901 75.9375 37.9844C75.6823 38.0677 75.4167 38.1224 75.1406 38.1484C74.8646 38.1797 74.5781 38.1953 74.2812 38.1953C73.4115 38.1953 72.6484 38.0495 71.9922 37.7578C71.3359 37.4609 70.7891 37.0495 70.3516 36.5234C69.9141 35.9922 69.5859 35.362 69.3672 34.6328C69.1484 33.8984 69.0391 33.0911 69.0391 32.2109C69.0391 31.3776 69.1615 30.6042 69.4062 29.8906C69.651 29.1719 70 28.5495 70.4531 28.0234C70.9062 27.4922 71.4557 27.0755 72.1016 26.7734C72.7474 26.4714 73.474 26.3203 74.2812 26.3203C74.9219 26.3203 75.4948 26.4115 76 26.5938C76.5104 26.7708 76.974 27.0755 77.3906 27.5078V26.6406H81.0391V37.8047ZM82.6406 22.3828H86.2578V27.6328C86.4922 27.3776 86.737 27.1667 86.9922 27C87.2474 26.8281 87.5104 26.6927 87.7812 26.5938C88.0573 26.4948 88.3359 26.4245 88.6172 26.3828C88.8984 26.3411 89.1797 26.3203 89.4609 26.3203C90.2943 26.3203 90.9948 26.4349 91.5625 26.6641C92.1354 26.888 92.5964 27.2057 92.9453 27.6172C93.2995 28.0286 93.5521 28.5234 93.7031 29.1016C93.8594 29.6797 93.9375 30.3203 93.9375 31.0234V38H90.1641V31.6016C90.1641 31.1276 90.1406 30.724 90.0938 30.3906C90.0469 30.0521 89.9609 29.776 89.8359 29.5625C89.7109 29.349 89.5391 29.1927 89.3203 29.0938C89.1068 28.9948 88.8333 28.9453 88.5 28.9453C87.8385 28.9453 87.3255 29.2109 86.9609 29.7422C86.6016 30.2734 86.4219 31.0625 86.4219 32.1094V38H82.6406V22.3828ZM99.9375 34.5781C99.9375 34.724 99.9505 34.8438 99.9766 34.9375C100.003 35.026 100.039 35.099 100.086 35.1562C100.138 35.2083 100.203 35.2448 100.281 35.2656C100.359 35.2865 100.451 35.2969 100.555 35.2969C100.669 35.2969 100.831 35.2917 101.039 35.2812C101.247 35.2656 101.474 35.2214 101.719 35.1484V38C101.391 38.0677 101.073 38.1068 100.766 38.1172C100.458 38.1276 100.12 38.1302 99.75 38.125C99.2448 38.1198 98.776 38.0625 98.3438 37.9531C97.9115 37.8385 97.5339 37.6562 97.2109 37.4062C96.8932 37.151 96.6432 36.8203 96.4609 36.4141C96.2786 36.0026 96.1875 35.4974 96.1875 34.8984V28.8828H95.0703V26.6406H96.1875V23.6797H99.9375V26.6406H101.406V28.8828H99.9375V34.5781Z" fill="#491DC5"/>
<path d="M2.09137 38.0955C0.941117 38.0955 0 37.1544 0 36.0042V29.73C0 28.5798 0.941117 27.6387 2.09137 27.6387C3.24163 27.6387 4.18274 28.5798 4.18274 29.73V36.0042C4.18274 37.1544 3.24163 38.0955 2.09137 38.0955Z" fill="#353535"/>
<path d="M9.68317 38.0956C8.53291 38.0956 7.5918 37.1545 7.5918 36.0042V22.9332C7.5918 21.7829 8.53291 20.8418 9.68317 20.8418C10.8334 20.8418 11.7745 21.7829 11.7745 22.9332V36.0042C11.7745 37.1545 10.8543 38.0956 9.68317 38.0956Z" fill="#676767"/>
<path d="M17.2964 38.096C16.1462 38.096 15.2051 37.1548 15.2051 36.0046V31.8218C15.2051 30.6716 16.1462 29.7305 17.2964 29.7305C18.4467 29.7305 19.3878 30.6716 19.3878 31.8218V36.0046C19.3878 37.1548 18.4676 38.096 17.2964 38.096Z" fill="#9A9A9A"/>
<path d="M24.9078 38.0947C23.7575 38.0947 22.8164 37.1536 22.8164 36.0033V25.5465C22.8164 24.3962 23.7575 23.4551 24.9078 23.4551C26.058 23.4551 26.9991 24.3962 26.9991 25.5465V36.0033C26.9991 37.1536 26.058 38.0947 24.9078 38.0947Z" fill="#B3B3B3"/>
</svg>
